<svg width="512" height="512" viewBox="0 0 512 512" fill="none" xmlns="http://www.w3.org/2000/svg">
<defs>
  <linearGradient id="bg-grad" x1="0%" y1="0%" x2="100%" y2="100%">
    <stop offset="0%" stop-color="#0038A8"/>
    <stop offset="100%" stop-color="#061325"/>
  </linearGradient>
</defs>
<rect width="512" height="512" rx="116" fill="url(#bg-grad)"/>
<g transform="translate(42, 182) scale(1.62)">
  <path d="M112.035 63.552L118.104 43.3465L103.905 59.6084L96.9707 59.6421L92.9433 41.8583L86.3289 63.5558L78.1765 63.5483L87.8857 32.2128L98.9448 32.1566L103.247 50.5103L118.871 32.1866L129.749 32.1716L120.1 63.5558L112.035 63.552Z" fill="#FFFFFF"/>
  <path d="M188.771 63.5708L168.755 63.5558C167.044 63.5558 165.269 62.6636 164.367 61.3703C163.385 59.957 163.397 58.1577 163.886 56.5495L169.372 38.5707C170.519 34.8107 174.144 32.1529 178.145 32.1566L198.515 32.1791C200.515 32.1791 202.504 33.3262 203.271 34.9981C204.166 36.9475 203.572 38.8893 202.971 40.8086L197.793 57.2767C196.597 61.0779 192.859 63.5708 188.771 63.5708ZM187.516 56.8606C189.121 56.6094 190.185 55.6835 190.614 54.2703L194.6 41.0748C194.927 39.9914 194.021 38.8631 192.893 38.8668L179.608 38.8781C178.306 38.8781 177.051 40.0102 176.69 41.1798L172.572 54.5776C172.437 55.0125 172.497 55.9272 172.805 56.1708C173.087 56.392 173.674 56.6694 174.121 56.8681H187.512L187.516 56.8606Z" fill="#FFFFFF"/>
  <path d="M226.134 63.5367L199.789 63.5517L202.662 58.4497C203.162 57.5613 204.204 56.8603 205.336 56.8603H224.371C226.367 56.8603 227.383 55.6082 227.762 53.7301C227.868 53.2015 228.071 52.3243 227.868 51.867C227.683 51.4584 226.781 51.0648 226.239 51.0648L211.604 51.0498C210.01 51.0498 208.276 50.4575 207.148 49.4378C206.02 48.4182 205.61 46.5888 206.013 45.1343L207.637 39.2451C208.769 35.1403 211.965 32.5162 216.361 32.1488H241.247L236.971 38.8627L218.181 38.8402C216.252 38.8402 215.034 39.8711 214.654 41.843C214.575 42.2628 214.473 43.1887 214.654 43.5599C214.857 43.976 215.759 44.4746 216.323 44.4783L231.143 44.5533C232.828 44.5608 234.651 45.2243 235.783 46.4051C236.776 47.4435 237.054 49.3029 236.656 50.6749L234.824 56.9503C233.738 60.684 230.301 63.5217 226.127 63.5217L226.134 63.5367Z" fill="#FFFFFF"/>
  <path d="M154.003 53.854L135.935 53.9514L133.096 63.5481L124.812 63.5556L134.085 33.1424C134.333 32.6176 134.942 32.1527 135.548 32.1527L159.828 32.1939C161.652 32.1939 163.472 33.0187 164.446 34.4207C165.239 35.564 165.442 37.3447 165.025 38.6905L162.167 47.8598C161.114 51.2374 157.775 53.839 154.003 53.8577V53.854ZM155.135 45.112L156.372 40.9697C156.478 40.6173 156.282 39.7738 156.053 39.4964C155.823 39.219 155.135 38.9754 154.646 38.8629L140.485 38.8779L137.988 47.275L152.259 47.2862C153.552 47.2862 154.737 46.4428 155.135 45.1082V45.112Z" fill="#FFFFFF"/>
  <path d="M65.5869 57.8387H48.2555L43.8296 63.5743L34.7822 63.518L58.8446 32.1901L70.0579 32.1414L75.3073 63.5443L66.4931 63.563L65.5869 57.8387ZM64.6129 51.1061L62.5711 38.7503L53.1026 51.1061H64.6129Z" fill="#FFFFFF"/>
  <path d="M11.0207 56.5827L35.2824 56.639C33.7293 59.1656 32.2327 61.3024 30.4729 63.5703L5.92921 63.5441C4.03024 63.5441 2.11999 62.7494 1.02198 61.3361C0.0818943 60.1215 -0.249015 58.2584 0.194704 56.7139L5.5607 38.1166C6.69632 34.1805 10.6296 32.3024 14.5441 31.9012H40.5318C39.4112 34.4541 38.2342 36.7371 36.4669 38.6564L16.1423 38.6939C14.0252 38.6977 12.5963 40.2759 12.1112 42.0602L8.93372 53.7525C8.78706 54.2923 8.86227 55.2707 9.15934 55.6268C9.4564 55.9829 10.3213 56.5865 11.0245 56.5865L11.0207 56.5827Z" fill="#FFFFFF"/>
  <path d="M142.136 27.6318L134.457 27.6881L130.9 19.0623L122.266 19.0435L119.83 27.6693L112.858 27.6581L120.792 0.0113525L143.11 0.0375935C144.516 0.0375935 145.772 0.731104 146.784 1.50334C147.566 2.79289 147.882 4.27738 147.472 5.75437L145.659 12.2546C144.697 15.6997 142.501 18.4775 138.834 19.066L142.14 27.6318H142.136ZM139.007 11.325L139.977 7.74494C140.244 6.76277 139.372 5.88558 138.428 5.88933L126.091 5.92681L124.007 13.2743L136.078 13.293C137.345 13.293 138.612 12.7982 139.011 11.325H139.007Z" fill="#FF6100"/>
  <path d="M167.819 27.6915L150.995 27.6202C148.262 27.609 146.175 25.0111 146.889 22.3721L151.071 6.8749C152.063 3.18992 154.699 0.0485007 158.854 0.0522494L176.302 0.0634956C177.521 0.0634956 178.946 0.906955 179.548 1.58922C180.345 2.49266 180.867 4.14959 180.514 5.42415L176.28 20.6252C175.167 24.6213 172.305 27.714 167.819 27.6952V27.6915ZM169.549 19.8792L172.907 7.96952C173.016 7.5834 172.832 6.70995 172.58 6.44755C172.362 6.22262 171.707 5.90398 171.388 5.90398L160.637 5.89274C159.174 5.89274 158.023 6.74744 157.636 8.11572L154.312 19.9054C154.207 20.2803 154.35 20.9925 154.579 21.2362C154.808 21.4799 155.564 21.8285 155.903 21.8285L166.676 21.836C167.834 21.836 169.18 21.1725 169.545 19.8754L169.549 19.8792Z" fill="#FF6100"/>
  <path d="M70.1331 22.6347L55.2497 22.6122L51.5947 27.6542L43.8672 27.598L63.9173 0.0487332L73.5061 0L78.4434 27.6542L70.9604 27.6805L70.1331 22.6347ZM69.1404 16.7792L67.1925 5.77676L59.2206 16.7942L69.1404 16.7792Z" fill="#FF6100"/>
  <path d="M109.436 0.116108L116.543 0.0711232L110.151 22.1997C108.887 25.3374 106.119 27.6354 102.6 27.6354H85.6444C83.1212 27.6354 80.6319 25.1875 81.3426 22.5109L87.3215 0.0148926L94.312 0.0711232L88.8745 19.7743C88.6602 20.7752 89.2431 21.8174 90.3373 21.8174L100.787 21.8399C102.487 21.8399 103.837 20.8802 104.093 19.1633L109.436 0.116108Z" fill="#FF6100"/>
  <path d="M19.9553 0.0451305L10.8215 0.0413818L3.89868 27.6619H10.8666L15.6648 9.19573L19.9591 24.0744L25.9869 24.0331L26.8856 22.9123L19.9553 0.0451305Z" fill="#FF6100"/>
  <path d="M37.7191 0.022583L26.9119 13.5667L28.9575 20.3181L37.5987 9.51056L33.1352 27.6431L40.0881 27.6393L47.1124 0.0413266L37.7191 0.022583Z" fill="#FF6100"/>
  <path d="M250.056 47.848L250.899 48.1539L251.742 48.3834L251.818 48.4599L251.895 48.5363H251.972V49.1482L252.048 49.2247L252.125 49.3012L252.278 49.3776V49.6071L252.201 49.6836V50.066L252.125 50.2189V50.3719L252.201 50.5248L252.278 50.8308L252.355 51.1367V51.2896L252.278 51.5191V51.978L252.201 52.0544V52.1309L252.125 52.2074L252.201 52.5133V52.8957L252.278 52.9722L252.355 53.0487L252.431 53.1252L252.355 53.2017V53.2781L252.431 53.3546H252.508L252.585 53.2781H252.814L252.968 53.3546H253.044L253.351 53.6605H253.427L253.81 53.8135L253.964 53.89L254.27 53.9665L254.5 54.1959L254.653 54.2724H254.883L254.96 54.3489H255.113L255.343 54.4253H255.419L255.496 54.3489H255.726L255.956 54.4253L256.262 54.6548L256.339 54.7313L256.645 54.8077L256.722 54.8842H256.798L256.875 54.8077L257.105 54.6548H257.258L257.411 54.5783L257.794 54.6548L258.484 54.8077L258.56 54.8842L258.637 54.9607L258.714 55.0372L258.79 55.1137L259.327 55.3431H259.556L259.939 55.2666H260.706L261.778 55.0372H262.315L262.468 55.1137L262.621 55.2666H262.774L263.464 55.4961L263.54 55.5725L263.617 55.649L263.694 55.8785L263.923 56.0314L264 56.2609V56.7962L263.923 57.0257V57.561L263.617 57.9434L263.081 58.7847L262.621 59.2436L262.544 59.473L262.315 60.1614L262.468 60.7732L263.081 61.538L263.157 62.3028L263.004 63.3735L263.311 65.1326L263.923 67.1976L263.847 67.8094L263.464 68.2683L261.242 69.6449L259.633 70.4862L258.024 70.9451L256.185 71.404L254.806 71.9394L253.121 72.7806L251.972 73.5454L251.512 73.9278L251.435 74.0808L251.359 74.3867L251.282 74.5397L250.976 74.7691L250.516 75.075L250.286 75.228L249.98 75.8399L249.903 75.9163L249.75 75.9928L249.597 76.0693L249.52 76.1458L249.443 76.2223L249.29 76.5282L249.06 76.6811L248.447 76.9871L248.141 77.4459L247.988 78.2107V78.9755L248.064 79.7404L248.218 79.9698L248.754 80.5816L248.907 80.8111L248.984 80.8876L249.137 80.7346L249.367 80.5052L249.443 80.4287L249.826 80.3522L249.98 80.2757V80.5816L249.903 80.7346L249.75 80.8876L249.673 81.117L249.367 80.964L249.137 81.117L248.83 81.5759L248.371 81.7288L248.218 81.8053H248.141L248.064 81.9583V82.4936L247.988 82.6466L247.911 82.7231H247.681L247.605 82.7996L247.528 82.9525L247.451 83.2584L247.528 83.6409L247.605 83.7938L247.758 83.6409H247.834L247.911 83.8703V84.0233L247.758 84.4057L247.528 84.3292L247.222 84.0233L247.068 83.9468L245.306 83.8703L242.162 83.7173L239.787 83.6409L238.331 83.7173L237.871 83.7938L237.642 83.8703H237.565L237.335 84.0997L237.259 84.1762H236.109L234.654 84.3292L233.581 84.2527L232.049 84.3292L231.666 83.9468L231.359 83.7938L231.129 83.9468L230.976 83.7938L230.67 83.5644L230.516 83.4114H230.823L230.9 83.4879L231.129 83.3349V83.182L230.976 83.1055L230.746 83.029L230.516 82.9525L230.593 82.7996L230.823 82.4172L230.976 81.9583L231.283 81.6524L231.972 80.964L231.742 81.0405L231.589 80.964V80.8111L231.666 80.6581L231.972 80.5052L232.125 80.4287V80.2757L232.202 79.9698V79.8168L232.125 79.358V79.2815L231.896 79.205H231.512L231.359 79.1285L231.206 79.2815L231.053 79.5109L230.9 79.5874L230.746 79.6639H230.516L230.363 79.5874L230.21 79.6639L229.827 79.8168L229.214 80.2757H228.908L228.601 80.3522L228.371 80.5052L228.295 80.8876L228.371 81.1935L228.831 82.1112H228.908L228.984 82.0348L229.061 81.9583L229.137 81.8818V82.0348L229.214 82.1877L229.291 82.2642L229.444 82.3407H229.367L229.291 82.4172L229.214 82.4936L229.827 82.876L230.057 82.9525V83.182L229.98 83.4879L230.057 83.7173L230.21 83.6409V83.9468L229.904 84.2527L229.52 84.4821L229.137 84.6351L225.61 85.0175L224.844 85.2469L224.154 85.5529L224.078 85.6293L224.001 85.7823L223.848 85.8588H223.771L223.618 85.5529H223.541L222.928 85.4764L219.095 85.8588H218.405L218.099 85.9353L217.869 86.0882L217.562 86.3177L217.256 86.3941L217.026 86.2412L216.949 85.8588L217.103 85.5529L217.256 85.3999L217.869 85.4764H218.022L218.405 85.7058L218.558 85.6293L218.635 85.5529L218.788 85.094L219.095 85.3999L219.707 85.5529H220.933L222.159 85.3234L222.849 85.094L223.232 84.8645L222.925 84.7881L222.542 84.7116L222.236 84.5586L222.159 84.3292L222.083 84.4057H221.929L221.699 84.3292H221.623L221.47 84.1762L221.24 83.7938L221.163 83.7173L220.933 83.6409L220.244 83.5644H220.167L220.014 83.182H219.784L219.478 83.2584L219.171 83.182L219.401 83.029V82.9525L219.171 83.029L218.711 83.182L218.635 83.2584L217.792 83.4114H217.639L217.179 83.6409L217.026 83.7173L216.873 83.7938L216.796 84.0233L216.643 84.2527L216.336 84.3292L216.413 84.0233L216.49 83.7938L216.413 83.6409L216.26 83.7173L216.107 83.8703L215.877 84.4821L215.724 84.6351L215.34 85.094L215.111 85.2469H214.651L214.421 85.4764H214.344L214.191 85.5529H214.115V85.3999L214.038 85.3234L213.885 85.3999L213.732 85.5529H213.425L213.349 85.4764V84.7116L213.195 84.6351H212.889L212.659 84.941H212.506L212.429 84.6351L212.199 84.7881L212.123 84.8645L211.969 85.0175L211.663 84.7116L211.586 84.4821L211.816 84.3292H212.123L212.276 84.2527V84.0997L212.199 83.8703L212.123 83.7938L212.046 83.7173V83.6409L212.199 83.4879L212.046 83.4114H211.893L211.74 83.3349L211.586 83.4114L211.663 83.6409L211.586 83.7938L211.51 83.9468L211.357 84.0997L211.28 83.9468L211.203 83.7938L211.127 83.7173L211.05 83.7938H210.973V83.8703L210.744 83.7173L210.59 83.8703L210.284 84.4057L210.361 84.7116L210.054 84.8645L209.594 85.0175L208.828 85.1705L207.756 85.6293L207.832 85.5529V85.3234H207.373L206.99 85.4764L206.683 85.7058L206.3 86.5471V86.6236L206.377 86.7766V86.853L206.223 87.159L206.07 87.6943V87.8473L206.147 88.3062L206.453 88.2297L206.836 88.0002L207.143 87.8473L207.449 88.0002L206.683 88.6121L206.606 88.918L206.76 88.6886L206.99 88.6121L207.219 88.5356L207.449 88.6886L207.219 88.918L207.066 89.1474L206.99 89.3004L207.066 89.5298L207.143 89.4534L207.373 89.071L207.602 88.8415L207.832 88.6886L208.062 88.5356H208.522L208.369 88.765L208.292 88.8415L208.215 88.918L208.445 89.1474L208.905 89.2239L209.211 89.3004L209.365 89.6828L208.981 89.6063L208.752 89.8358L208.369 90.3711L208.062 90.6771L207.832 90.6006L207.602 90.4476L207.373 90.5241L207.143 90.3711H206.683L206.223 90.4476L205.84 90.6006L205.381 90.2947L205.227 90.1417L205.074 89.8358L204.998 89.6828L204.844 89.6063H204.768V89.6828L204.691 89.7593H204.538L204.461 89.6828L204.231 89.3004L203.848 88.6886L203.772 88.5356V88.1532L204.078 87.6943L204.231 87.5414H204.308L204.385 87.4649L204.538 87.3119L204.691 87.006V86.0117L204.844 85.094V84.4821L204.921 84.4057H205.227L205.304 84.3292H205.457L205.534 84.2527L205.687 83.8703L205.764 83.7938L205.917 83.6409H205.994L206.07 83.5644H206.147L206.683 83.4879L206.836 83.4114L207.143 83.2584L207.679 82.876L208.062 82.6466H208.445L208.675 82.7996H208.752L208.981 82.7231L209.824 82.1877H209.901L209.977 82.2642V82.3407L210.054 82.4172V82.4936H210.131L210.207 82.5701L210.361 82.4936H210.514L210.973 82.2642H211.05L211.127 82.3407L211.28 82.4172H211.357L211.586 82.3407L212.353 81.8818L212.889 81.7288L212.965 81.6524L213.042 81.5759L213.272 81.117V80.8111L213.195 80.6581L213.272 80.5052L213.655 80.0463L213.808 79.9698L213.961 79.8933L214.191 79.8168H214.268L214.421 79.7404L214.498 79.6639L214.574 79.5874V79.2815L214.498 79.1285L214.191 78.5931L213.961 78.2107L213.732 77.9048V77.8283L213.655 77.9048H213.578L213.502 77.9813H213.195L212.659 77.9048H212.276L212.046 77.9813L211.893 78.0578H211.663L211.586 77.9813L211.433 77.8283L211.357 77.7519L211.28 77.8283L211.203 77.9813H211.127L210.973 78.0578H210.514L210.437 78.1343L210.361 78.2107H210.284L209.594 78.2872H209.441V78.3637H209.365L209.211 78.4402H208.905L208.752 78.3637L208.522 78.2107H208.292L208.215 78.2872H207.756L207.373 78.1343L207.296 78.0578L207.219 77.9813V77.9048L207.066 77.3695V77.293H206.836L206.76 77.2165V77.14L206.683 77.0635L206.453 76.7576L206.223 76.6047L206.07 76.4517L205.994 76.2987L205.61 75.5339L205.534 75.381L205.381 75.228L205.151 75.075L204.691 74.8456H204.231L204.844 74.3867L205.151 74.2338L205.84 74.0043H206.147L206.53 74.0808L206.836 74.1573H207.066V74.0808L207.143 74.0043L207.373 73.6219L207.602 73.3925L207.679 73.316H207.832L208.292 73.2395L208.675 73.163L208.905 73.0866H208.981L209.058 73.0101L210.284 72.3218L210.437 72.2453H210.744L210.897 72.3218L211.663 72.1688H211.893L212.582 72.0923H212.889L212.965 72.1688L213.042 72.2453L213.119 72.3218H213.349L213.732 72.2453L215.187 71.404L215.34 71.3275L215.647 70.9451L215.8 70.8686H215.877L216.03 70.7921H216.107L217.945 70.0273L218.482 69.8744L218.711 69.7979L218.865 69.6449L219.095 69.492L219.937 69.1096L220.397 68.9566H220.55L220.627 69.0331H220.703V69.1096L220.78 69.1861L220.857 69.2625H220.933L221.01 69.339L221.24 69.2625H221.393L221.699 69.1096H221.929L222.083 69.1861L222.159 69.2625H222.236L222.389 69.1096L222.542 68.9566H222.772L222.925 69.0331H223.155L223.232 68.9566L223.385 68.8801L223.462 68.8037L223.538 68.8801L223.691 69.0331L223.768 69.1096H223.845L223.921 69.1861H224.151L224.381 69.1096L224.611 69.0331H225.3L225.377 68.9566L225.607 68.8801L226.833 68.1918L227.216 68.1153H227.599L227.675 68.1918H228.671L228.748 68.2683L228.901 68.3448L228.978 68.4213H229.131L229.361 68.4977L229.591 68.4213H230.357L230.433 68.4977H230.51V68.8801L230.433 68.9566L230.357 69.0331V69.1096L230.28 69.1861V69.4155L230.357 69.492V69.6449L230.587 69.5685L230.74 69.339L230.893 69.1861H231.123L231.506 69.339L231.583 69.2625L231.736 68.9566L231.813 68.7272L231.966 68.4977L232.272 68.2683L233.268 68.1918L233.498 68.0388L234.034 67.58L234.264 67.427L236.333 66.5857L237.482 65.8974L239.397 65.2091L240.853 64.3678L241.696 64.1383L242.002 63.9089L242.155 63.7559L242.309 63.603H242.539L242.768 63.7559H242.998L243.151 63.6795L243.458 63.3735L243.611 63.2971L243.841 62.8382L243.918 62.6087L243.841 62.5323L243.764 62.3793L243.688 62.2263H243.611V62.1499L243.458 62.0734H243.151L243.075 62.1499H242.845L242.692 62.0734L242.539 61.9969H242.232V61.7675L242.309 61.3086L242.615 60.6967L243.305 59.5495V59.473L243.381 59.3201V58.2494L243.611 57.7905L243.688 57.714L244.53 57.1022L244.684 56.1844L244.76 55.8785L245.143 55.0372L245.22 54.8842V54.7313L245.143 54.5783V54.1959L245.22 54.0429V53.9665L245.373 53.8135L245.45 53.737L245.526 53.5841L245.603 53.2781L245.68 53.1252L245.91 52.8192L246.063 52.5898L246.369 51.978L246.446 51.672V51.5191L246.369 51.4426H246.063L245.986 51.3661H245.91L245.833 51.2896V51.1367L245.756 50.9072L245.833 50.7543L245.91 50.6778L246.063 50.6013L246.216 50.5248L246.369 50.3719L246.446 50.2189L246.599 50.1424H246.676L246.752 50.2954H247.212L247.518 50.2189H247.672V50.2954L247.748 50.3719H248.131L248.208 50.2954L248.361 50.2189L248.438 50.066L248.514 49.9895L248.821 49.3776L249.051 48.9187L249.127 48.8423L249.051 48.6893L249.204 48.3069L249.357 48.2304H249.51L249.74 48.1539L249.817 48.0775L249.893 48.001L250.047 47.848L250.056 47.848ZM215.558 87.2609L215.787 87.4904V87.5668L215.558 87.6433L215.481 87.7198L215.404 87.7963L215.328 87.7198L215.251 87.6433V87.4904H215.021L214.868 87.5668V87.6433L214.638 87.5668L214.485 87.6433L214.332 87.7963L214.178 87.8728L213.489 88.0257H213.336L213.106 87.8728L212.953 87.7963L212.799 87.7198L212.57 87.6433L212.416 87.7198L212.263 87.9493L212.187 88.2552L212.11 88.4846H212.033V88.4081L211.957 88.3317L211.88 88.1787L211.803 88.1022V87.9493L211.88 87.7963H211.574L211.497 87.7198L211.42 87.6433V87.4904H211.497L212.11 87.1844L212.493 86.7256L212.723 86.802L212.876 86.6491L213.259 86.2667L213.336 86.1902V85.8843H213.489V85.9608L213.566 86.0372H213.719L213.872 86.1137L214.025 86.1902L214.178 86.2667V86.3432L214.102 86.4196H214.025L213.949 86.4961H213.872L214.178 86.7256L214.408 86.5726L214.562 86.7256L214.715 86.8785L214.868 86.955L215.021 86.8785L215.098 86.802V86.6491L215.174 86.5726L215.328 86.6491V86.802L215.251 86.8785V86.955L215.404 87.108L215.558 87.2609Z" fill="#FFFFFF"/>
</g>
</svg>
