<svg xmlns="http://www.w3.org/2000/svg" width="1699" height="432" viewBox="0 0 1699 432" fill="none">
  <path d="M1501.85 0.708618L1516.18 17.7637L1531.46 33.1723L1532.15 35.7705L1532.85 38.3688L1534.5 39.3205L1526.9 52.4928L1527.59 55.0911L1528.29 57.6894L1530.64 61.2393L1527.79 66.179L1525.19 66.8738L1520.43 75.1065L1516.88 77.4479L1514.98 80.741L1514.73 84.9857L1512.58 92.5236L1510.42 100.061L1508.52 103.355L1504.02 107.342L1498.32 117.222L1495.72 117.917L1494.77 119.563L1492.17 120.258L1490.01 127.796L1485.26 136.028L1485.96 138.627L1486.66 141.225L1487.35 143.823L1484.75 144.518L1483.8 146.165L1484.5 148.763L1486.15 149.715L1488.75 149.02L1493.69 151.875L1496.04 155.425L1497.69 156.377L1500.48 166.77L1502.13 167.721L1508.47 175.773L1510.82 179.323L1516.46 184.777L1518.55 192.571L1520.9 196.121L1525.84 198.976L1526.54 201.575L1529.84 203.478L1533.83 207.98L1535.48 208.932L1538.08 208.237L1543.03 211.092L1547.02 215.594L1550.76 224.34L1551.46 226.938L1557.1 232.392L1557.8 234.99L1559.45 235.942L1562.05 235.247L1568.9 234.809L1572.19 236.713L1576.44 236.969L1583.73 243.375L1596.67 255.233L1597.36 257.831L1598.06 260.43L1598.76 263.028L1599.46 265.626L1608.14 277.228L1613.09 280.083L1622.28 283.195L1638.77 292.712L1664.7 301.097L1676.24 307.759L1678.58 311.309L1679.98 316.505L1683.27 318.409L1695.26 331.914L1695.96 334.512L1696.65 337.11L1695.45 343.002L1698.49 349.15L1697.29 355.041L1690.64 366.567L1686.14 370.555L1679.48 382.081L1668.13 386.507L1646.14 397.956L1630.54 402.125L1626.04 406.113L1612.54 418.077L1608.23 433.153L1611.92 457.232L1604.06 474.649L1587.45 495.797L1572.18 537.475L1559.7 589.545L1550.45 601.766L1536.5 606.886L1471.59 608.924L1426.51 607.05L1386.19 596.943L1340.93 583.981L1304.6 578.376L1257.88 575.55L1223.64 577.739L1209 580.262L1205.45 582.603L1200 588.237L1196.45 590.579L1187.01 591.712L1173.31 592.587L1166.47 593.025L1152.27 602.391L1149.67 603.085L1145.42 602.829L1141.17 602.572L1138.57 603.267L1135.97 603.961L1128.88 608.644L1122.03 609.082L1105.04 608.054L1092.74 614.127L1079.94 628.689L1070.43 645.154L1062.57 662.571L1063.02 669.414L1066.95 689.249L1067.4 696.092L1068.1 698.69L1073.29 697.3L1081.09 695.216L1083.69 694.521L1092.88 697.633L1097.13 697.89L1093.33 704.476L1089.78 706.818L1084.58 708.207L1080.08 712.195L1075.39 705.095L1068.54 705.533L1056.24 711.605L1044.45 709.188L1040.2 708.931L1038.56 707.98L1035.01 710.321L1028.35 721.847L1024.8 724.188L1022.2 724.883L1017.26 722.028L1014.66 722.723L1011.11 725.064L1005.66 730.698L1002.55 739.883L1002.3 744.128L1007.5 742.738L1009.15 743.69L1007.94 749.581L1006.04 752.874L997.992 759.203L993.997 754.702L991.206 744.308L988.859 740.759L951.896 717.222L886.143 674.869L835.993 643.719L803.722 627.283L792.881 623.219L786.985 622.011L785.336 621.059L777.539 623.143L774.94 623.838L750.213 609.562L716.992 594.773L694.865 579.802L660.945 562.414L657.456 549.423L652.764 542.323L645.917 542.761L644.522 537.564L640.78 528.818L639.384 523.621L645.978 527.428L646.676 530.026L653.522 529.589L655.424 526.295L653.077 522.745L649.083 518.244L645.088 513.742L648.638 511.401L658.336 506.023L667.337 498.047L677.733 495.268L701.125 489.015L695.229 487.806L692.883 484.256L694.784 480.963L698.334 478.622L706.828 479.135L711.076 479.392L712.977 476.099L718.428 470.465L720.329 467.172L724.385 456.341L725.335 454.694L721.341 450.193L713.099 445.434L710.752 441.884L705.554 443.274L699.406 446.31L695.158 446.053L690.911 445.796L685.965 442.941L683.619 439.391L679.372 439.134L669.228 437.668L650.337 439.934L643.743 436.127L636.199 433.967L629.352 434.405L622.951 441.686L620.797 449.223L619.28 474.692L620.928 475.644L623.527 474.949L626.126 474.254L628.725 473.56L626.824 476.853L626.571 481.097L627.269 483.696L629.615 487.246L627.967 486.294L625.368 486.989L622.769 487.684L631.203 503.53L635.198 508.032L632.346 512.971L626.895 518.606L625.691 524.497L629.939 524.754L626.136 531.34L615.74 534.12L604.646 534.3L594.503 532.835L513.853 497.249L494.517 492.671L475.878 490.692L473.279 491.387L469.73 493.728L465.482 493.471L463.834 492.519L464.339 484.03L462.691 483.078L450.454 473.818L363.211 434.425L348.375 425.859L340.831 423.699L333.984 424.137L324.538 425.27L316.994 423.109L313.95 416.961L317.055 407.777L324.154 403.094L329.352 401.704L341.589 410.965L344.886 412.868L350.276 422.566L354.524 422.823L357.123 422.128L366.123 414.153L368.915 424.546L380.201 435.452L406.576 450.68L435.802 460.968L453.49 464.594L464.584 464.413L458.941 458.959L451.65 452.554L446.957 445.454L448.161 439.563L445.562 440.258L442.265 438.354L438.27 433.853L436.622 432.901L435.226 427.704L435.034 416.616L434.336 414.018L430.341 409.516L416.456 399.304L414.808 398.353L416.264 388.217L411.319 385.361L403.774 383.201L398.131 377.748L404.978 377.31L405.929 375.663L400.033 374.455L388.241 372.037L385.642 372.732L365.608 365.556L362.311 363.653L349.568 362.882L345.321 362.625L341.073 362.368L336.573 366.356L330.424 369.392L322.88 367.232L328.331 361.598L332.831 357.61L333.084 353.365L328.837 353.108L323.638 354.498L311.088 364.815L305.89 366.204L291.944 371.325L285.098 371.763L275.207 366.053L267.41 368.137L265.761 367.185L261.514 366.928L259.865 365.977L261.767 362.684L261.069 360.085L256.821 359.829L251.623 361.218L245.03 357.411L244.332 354.813L253.838 338.348L251.492 334.798L244.898 330.991L236.15 334.722L232.853 332.818L235.008 325.28L228.161 325.718L225.562 326.413L220.364 327.803L217.573 317.41L218.776 311.518L225.623 311.08L232.216 314.887L236.464 315.144L238.365 311.851L239.569 305.96L238.871 303.362L238.173 300.763L239.124 299.117L244.322 297.727L241.975 294.177L238.679 292.274L236.332 288.724L232.085 288.467L230.881 294.358L227.332 296.7L223.782 299.041L218.584 300.43L218.837 296.186L219.09 291.941L218.392 289.343L215.793 290.037L214.144 289.086L213.194 290.732L210.15 284.584L204.952 285.974L191.703 293.693L189.549 301.23L181.054 300.717L169.262 298.299L150.877 292.075L122.095 288.63L124.694 287.936L127.546 282.996L117.656 277.286L107.512 275.82L98.0665 276.953L79.3674 290.306L78.4168 291.953L78.1639 296.198L77.2133 297.844L70.1139 302.527L60.1627 312.149L58.2614 315.442L54.2061 326.273L61.7504 328.434L72.8444 328.253L81.3394 328.766L86.0319 335.866L61.9426 339.521L56.4916 345.156L62.6403 342.12L68.5363 343.328L74.4322 344.537L77.4762 350.685L69.679 352.77L63.5303 355.806L59.9806 358.147L58.7771 364.038L61.3762 363.344L71.0746 357.966L78.8718 355.882L85.7184 355.444L92.5649 355.006L102.455 360.716L96.3067 363.752L93.7077 364.447L91.1086 365.142L93.202 372.937L102.142 380.294L107.785 385.747L106.329 395.883L99.0372 389.478L91.2401 391.562L76.3435 398.33L65.9472 401.109L61.9526 396.607L58.9085 390.459L53.0127 389.25L49.9686 383.102L40.078 377.392L29.2368 373.328L19.0934 371.863L13.0054 359.566L11.6098 354.369L12.1155 345.88L12.3682 341.635L10.022 338.085L8.37361 337.133L7.42293 338.78L4.82394 339.475L1.52708 337.571L0.829214 334.973L0.637098 323.885L2.26526e-05 305.954L0.252838 301.709L5.00598 293.477L17.3035 287.404L22.5016 286.015L24.1501 286.966L26.7491 286.272L31.9472 284.882L39.0466 280.199L51.4048 258.794L66.1092 240.939L73.7143 227.767L76.3134 227.072L82.9071 230.879L85.5061 230.184L88.803 232.088L91.402 231.393L99.452 225.064L102.051 224.369L107.249 222.979L108.898 223.931L111.497 223.236L113.145 224.188L125.635 229.203L129.882 229.46L138.377 229.974L154.669 228.403L165.763 228.222L174.006 232.981L177.05 239.129L178.698 240.081L184.594 241.289L209.381 240.233L211.03 241.184L211.727 243.783L210.777 245.429L211.474 248.027L210.524 249.674L212.172 250.626L212.87 253.224L217.118 253.481L220.414 255.384L233.157 256.155L234.805 257.107L235.503 259.705L237.849 263.255L239.498 264.207L245.394 265.415L267.582 265.053L281.022 268.422L283.621 267.727L286.22 267.033L296.869 260.009L300.672 253.422L300.925 249.178L304.474 246.836L318.42 241.716L322.668 241.972L326.915 242.229L332.811 243.438L334.46 244.39L338.707 244.647L341.306 243.952L343.905 243.257L347.708 236.671L347.961 232.426L348.021 217.093L347.829 206.005L346.686 196.564L347.637 194.918L345.038 195.612L343.389 194.661L340.79 195.355L334.197 191.549L323.608 183.24L315.366 178.481L309.47 177.273L305.223 177.016L300.277 174.161L299.58 171.562L298.184 166.366L297.486 163.768L294.887 164.462L291.338 166.804L289.689 165.852L285.442 165.595L275.551 159.885L272.952 160.58L270.353 161.275L268.704 160.323L252.918 153.404L249.621 151.5L248.67 153.147L247.022 152.195L242.775 151.938L236.181 148.131L233.835 144.581L230.791 138.433L225.845 135.578L223.246 136.273L213.356 130.563L207.015 122.511L206.317 119.913L205.619 117.314L206.57 115.668L209.927 102.239L210.878 100.592L205.933 97.7369L205.235 95.1386L206.186 93.4921L205.488 90.8938L204.345 81.4525L201.301 75.3042L199.905 70.1077L200.158 65.8629L201.422 44.6389L201.675 40.3941L200.28 35.1976L197.236 29.0493L190.197 18.3994L180.306 12.6891L199.198 10.4236L207.692 10.9374L225.38 14.5633L231.974 18.3701L239.265 24.7753L244.909 30.2287L249.854 33.0839L250.804 31.4374L253.404 30.7425L263.102 25.365L270.899 23.2805L273.498 22.5857L276.795 24.4892L287.636 28.5529L296.829 31.665L302.725 32.8736L304.373 33.8254L306.972 33.1305L341.903 33.5392L346.151 33.7961L352.744 37.603L355.09 41.153L373.476 47.3771L378.421 50.2323L394.208 57.1512L400.802 60.9581L401.499 63.5564L402.197 66.1546L402.895 68.7529L407.84 71.6081L417.033 74.7201L458.81 74.6909L463.058 74.9478L474.404 70.522L478.652 70.7789L480.3 71.7306L484.548 71.9875L486.196 72.9392L535.265 79.3151L548.705 82.6841L554.601 83.8927L559.799 82.5031L566.646 82.0652L589.532 84.3014L601.324 86.7187L604.62 88.6221L605.318 91.2203L606.967 92.1721L606.016 93.8187L606.714 96.4169L607.412 99.0151L609.06 99.9669L609.758 102.565L615.654 103.774L618.951 105.677L627.446 106.191L632.391 109.046L634.737 112.596L635.435 115.194L637.083 116.146L642.281 114.757L647.48 113.367L652.425 116.222L654.771 119.772L659.716 122.627L662.315 121.932L666.563 122.189L669.162 121.494L669.86 124.093L671.255 129.289L671.953 131.887L673.602 132.839L674.299 135.437L679.245 138.293L685.141 139.501L691.036 140.71L705.872 149.275L708.471 148.581L714.367 149.789L749.298 150.198L758.491 153.31L766.733 158.069L767.431 160.667L788.86 173.039L789.558 175.637L791.904 179.187L792.602 181.786L795.899 183.689L799.894 188.191L805.789 189.399L822.274 198.917L822.972 201.515L824.62 202.467L819.867 210.699L817.268 211.394L814.669 212.089L813.718 213.736L811.119 214.43L808.267 219.37L808.965 221.968L807.064 225.261L812.96 226.47L819.108 223.434L824.307 222.044L829.252 224.899L835.593 232.951L838.192 232.256L845.291 227.573L849.791 223.585L855.94 220.549L865.386 219.417L887.766 230.142L894.613 229.704L911.855 226.487L918.702 226.049L973.666 233.634L1006.95 233.091L1056.71 242.065L1098.49 242.036L1119.48 247.565L1128.92 246.432L1134.12 245.043L1139.32 243.653L1144.26 246.508L1147.31 252.657L1152.25 255.512L1156.5 255.769L1166.9 252.989L1171.14 253.246L1181.79 246.222L1186.29 242.234L1185.6 239.636L1185.85 235.391L1186.1 231.146L1184.45 230.195L1185.4 228.548L1183.06 224.998L1176.46 221.191L1173.86 221.886L1168.92 219.031L1166.57 215.481L1164.23 211.931L1157.63 208.124L1160.49 203.184L1167.84 194.257L1182.04 184.891L1211.13 168.759L1212.08 167.112L1215.63 164.771L1228.94 141.719L1239.59 134.695L1242.19 134.001L1267.93 131.297L1282.63 113.442L1288.08 107.808L1306.78 94.4543L1310.33 92.1129L1312.23 88.8199L1312.48 84.5751L1317.24 76.3423L1320.79 74.001L1321.74 72.3545L1326.94 70.9648L1329.54 70.27L1333.09 67.9286L1338.54 62.2942L1342.09 59.9528L1350.83 56.2218L1356.98 53.1857L1371.18 43.8202L1376.63 38.1858L1378.53 34.8927L1377.84 32.2944L1371.24 28.4876L1370.54 25.8893L1368.9 24.9376L1368.2 22.3393L1370.1 19.0462L1371.3 13.1549L1374.85 10.8135L1377.45 10.1187L1381.7 10.3756L1385.95 10.6325L1391.14 9.24287L1394.69 6.90152L1398.94 7.15842L1400.59 8.11014L1400.34 12.3549L1410.23 18.0653L1417.77 20.2256L1421.07 22.1291L1420.12 23.7756L1420.82 26.3739L1429.06 31.1325L1431.66 30.4376L1435.9 30.6945L1439.45 28.3532L1442.05 27.6584L1456.25 18.2929L1466.9 11.2688L1469.5 10.574L1469.75 6.32923L1477.8 -3.06258e-05L1482.05 0.256872L1485.35 2.16031L1491.24 3.36894L1493.84 2.67412L1496.44 1.9793L1501.64 0.589661L1501.85 0.708618ZM269.68 420.674L271.773 428.468L270.823 430.115L264.927 428.906L262.328 429.601L259.729 430.296L259.031 427.698L258.333 425.099L260.234 421.806L255.289 418.951L251.042 418.694L250.091 420.341L246.096 415.839L241.849 415.582L236.651 416.972L232.403 416.715L215.666 411.443L212.369 409.539L209.325 403.391L206.979 399.841L204.633 396.291L200.638 391.789L196.391 391.532L190.242 394.568L184.791 400.203L180.291 404.191L178.642 403.239L179.593 401.593L178.895 398.994L179.148 394.749L178.45 392.151L180.351 388.858L183.901 386.517L177.307 382.71L176.61 380.112L175.912 377.513L177.813 374.22L179.461 375.172L196.451 376.2L210.397 371.079L214.392 375.581L219.59 374.191L232.585 370.717L235.184 370.022L238.987 363.436L242.284 365.339L241.333 366.986L242.031 369.584L245.328 371.488L247.674 375.038L250.02 378.588L252.367 382.138L251.416 383.784L248.817 384.479L247.168 383.527L244.569 384.222L242.921 383.27L246.663 392.017L253.509 391.579L254.905 396.775L256.301 401.972L258.647 405.522L262.894 405.779L265.493 405.084L267.395 401.791L269.994 401.096L272.34 404.646L270.439 407.939L267.84 408.634L266.889 410.28L268.284 415.477L269.68 420.674Z" fill="#FF6100"/>
</svg>
