<svg xmlns="http://www.w3.org/2000/svg" viewBox="0 0 1000 450" fill="none">
  <path d="M120 280 C 150 240, 200 230, 250 240 C 290 250, 320 230, 360 200 C 400 170, 450 160, 500 180 C 550 200, 600 190, 650 160 C 700 130, 760 120, 820 150 C 860 170, 890 210, 920 230 C 950 250, 940 280, 900 290 C 850 300, 820 340, 780 360 C 740 380, 680 390, 630 370 C 580 350, 530 360, 480 390 C 430 420, 380 430, 330 410 C 280 390, 230 400, 180 380 C 140 360, 110 320, 120 280 Z" fill="#FF6100" />
  <path d="M 680 390 C 700 410, 730 420, 750 400 Z M 330 410 C 310 430, 280 430, 260 415 Z" fill="#FF6100" opacity="0.7"/>
</svg>
